<svg width="175" height="31" viewBox="0 0 175 31" fill="none" xmlns="http://www.w3.org/2000/svg">
<mask id="mask0_276_8672" style="mask-type:alpha" maskUnits="userSpaceOnUse" x="0" y="0" width="31" height="31">
<rect y="0.090332" width="30.8192" height="30.8192" fill="#D9D9D9"/>
</mask>
<g mask="url(#mask0_276_8672)">
<path d="M4.33386 27.8597V21.1501C4.33386 20.2895 4.62386 19.566 5.20386 18.9796C5.78386 18.3934 6.49977 18.1003 7.35157 18.1003H23.4674C24.328 18.1003 25.0515 18.3934 25.6379 18.9796C26.2242 19.566 26.5173 20.2895 26.5173 21.1501V27.8597H4.33386ZM11.1452 16.8162C9.25819 16.8162 7.64585 16.1521 6.30822 14.8241C4.97058 13.4959 4.30176 11.8801 4.30176 9.97654C4.30176 8.07281 4.97058 6.45213 6.30822 5.11449C7.64585 3.77685 9.25819 3.10803 11.1452 3.10803H19.6471C21.5592 3.10803 23.1823 3.77428 24.5163 5.10679C25.8503 6.43929 26.5173 8.0605 26.5173 9.97044C26.5173 11.8804 25.8503 13.4988 24.5163 14.8257C23.1823 16.1527 21.5592 16.8162 19.6471 16.8162H11.1452ZM11.1455 11.3586C11.5483 11.3586 11.8835 11.222 12.151 10.9489C12.4185 10.6756 12.5523 10.3493 12.5523 9.9698C12.5523 9.59012 12.4166 9.26117 12.1452 8.98294C11.8741 8.70471 11.5423 8.5656 11.15 8.5656C10.758 8.5656 10.4281 8.70428 10.1606 8.98166C9.89309 9.25924 9.75932 9.59098 9.75932 9.97686C9.75932 10.363 9.89565 10.6898 10.1683 10.9573C10.441 11.2248 10.7667 11.3586 11.1455 11.3586ZM19.6555 11.3586C20.0352 11.3586 20.3641 11.222 20.6423 10.9489C20.9206 10.6756 21.0597 10.3493 21.0597 9.9698C21.0597 9.59012 20.921 9.26117 20.6436 8.98294C20.366 8.70471 20.0343 8.5656 19.6484 8.5656C19.2623 8.5656 18.9355 8.70428 18.668 8.98166C18.4005 9.25924 18.2667 9.59098 18.2667 9.97686C18.2667 10.363 18.4032 10.6898 18.6763 10.9573C18.9496 11.2248 19.276 11.3586 19.6555 11.3586Z" fill="#2D9CDB"/>
</g>
<path d="M43.2602 23.2053C42.1644 23.2053 41.1439 23.0273 40.1988 22.6711C39.2674 22.3013 38.4524 21.7877 37.7538 21.1302C37.0689 20.459 36.5347 19.6714 36.1512 18.7674C35.7677 17.8633 35.5759 16.8771 35.5759 15.8087C35.5759 14.7403 35.7677 13.7541 36.1512 12.8501C36.5347 11.9461 37.0758 11.1653 37.7743 10.5078C38.4729 9.83666 39.2879 9.32301 40.2193 8.96687C41.1508 8.59704 42.1712 8.41213 43.2807 8.41213C44.4587 8.41213 45.5339 8.61759 46.5064 9.02851C47.479 9.42574 48.3008 10.0216 48.972 10.816L47.2461 12.4392C46.7256 11.8776 46.1435 11.4598 45.4997 11.1859C44.8559 10.8982 44.1573 10.7544 43.404 10.7544C42.6506 10.7544 41.9589 10.8777 41.3288 11.1242C40.7124 11.3708 40.1714 11.7201 39.7057 12.1721C39.2537 12.6241 38.8975 13.1583 38.6373 13.7747C38.3907 14.3911 38.2674 15.0691 38.2674 15.8087C38.2674 16.5484 38.3907 17.2264 38.6373 17.8428C38.8975 18.4592 39.2537 18.9934 39.7057 19.4454C40.1714 19.8974 40.7124 20.2467 41.3288 20.4933C41.9589 20.7398 42.6506 20.8631 43.404 20.8631C44.1573 20.8631 44.8559 20.7261 45.4997 20.4522C46.1435 20.1645 46.7256 19.733 47.2461 19.1578L48.972 20.8014C48.3008 21.5822 47.479 22.178 46.5064 22.589C45.5339 22.9999 44.4518 23.2053 43.2602 23.2053ZM52.1887 27.1296C51.6545 27.1296 51.1203 27.0406 50.5861 26.8625C50.0519 26.6845 49.6068 26.4379 49.2506 26.1229L50.2779 24.2326C50.5382 24.4655 50.8327 24.6504 51.1614 24.7874C51.4902 24.9244 51.8257 24.9929 52.1682 24.9929C52.6339 24.9929 53.0106 24.8764 53.2982 24.6436C53.5859 24.4107 53.853 24.0203 54.0995 23.4724L54.7365 22.0342L54.9419 21.726L59.0922 12.0282H61.5578L56.4212 23.8834C56.0788 24.7052 55.6953 25.3558 55.2707 25.8352C54.8597 26.3147 54.394 26.6502 53.8735 26.842C53.3667 27.0338 52.8051 27.1296 52.1887 27.1296ZM54.4488 23.3903L49.4972 12.0282H52.1682L56.1952 21.5L54.4488 23.3903ZM69.2446 23.1437C68.3132 23.1437 67.4845 22.9382 66.7585 22.5273C66.0325 22.1164 65.4572 21.5 65.0326 20.6782C64.6217 19.8426 64.4162 18.7879 64.4162 17.5141C64.4162 16.2265 64.6286 15.1718 65.0532 14.35C65.4915 13.5281 66.0736 12.9186 66.7996 12.5214C67.5393 12.1104 68.3543 11.905 69.2446 11.905C70.3267 11.905 71.2787 12.1378 72.1005 12.6035C72.936 13.0692 73.5935 13.7199 74.0729 14.5554C74.566 15.391 74.8126 16.3772 74.8126 17.5141C74.8126 18.6509 74.566 19.6372 74.0729 20.4727C73.5935 21.3082 72.936 21.9657 72.1005 22.4451C71.2787 22.9108 70.3267 23.1437 69.2446 23.1437ZM63.1629 22.9999V7.75465H65.7312V14.576L65.5257 17.4935L65.6079 20.4111V22.9999H63.1629ZM68.9569 20.9453C69.5733 20.9453 70.1212 20.8083 70.6006 20.5343C71.0937 20.2604 71.4841 19.8632 71.7718 19.3427C72.0594 18.8222 72.2032 18.2126 72.2032 17.5141C72.2032 16.8018 72.0594 16.1923 71.7718 15.6855C71.4841 15.165 71.0937 14.7677 70.6006 14.4938C70.1212 14.2198 69.5733 14.0829 68.9569 14.0829C68.3406 14.0829 67.7858 14.2198 67.2927 14.4938C66.7996 14.7677 66.4092 15.165 66.1216 15.6855C65.8339 16.1923 65.6901 16.8018 65.6901 17.5141C65.6901 18.2126 65.8339 18.8222 66.1216 19.3427C66.4092 19.8632 66.7996 20.2604 67.2927 20.5343C67.7858 20.8083 68.3406 20.9453 68.9569 20.9453ZM82.1793 23.1437C81.0561 23.1437 80.0562 22.904 79.1796 22.4246C78.303 21.9315 77.6112 21.2603 77.1044 20.4111C76.5976 19.5618 76.3442 18.5962 76.3442 17.5141C76.3442 16.4183 76.5976 15.4526 77.1044 14.6171C77.6112 13.7678 78.303 13.1035 79.1796 12.6241C80.0562 12.1447 81.0561 11.905 82.1793 11.905C83.3162 11.905 84.323 12.1447 85.1996 12.6241C86.0899 13.1035 86.7817 13.761 87.2748 14.5965C87.7816 15.4321 88.035 16.4046 88.035 17.5141C88.035 18.5962 87.7816 19.5618 87.2748 20.4111C86.7817 21.2603 86.0899 21.9315 85.1996 22.4246C84.323 22.904 83.3162 23.1437 82.1793 23.1437ZM82.1793 20.9453C82.8094 20.9453 83.371 20.8083 83.8641 20.5343C84.3572 20.2604 84.7408 19.8632 85.0147 19.3427C85.3023 18.8222 85.4462 18.2126 85.4462 17.5141C85.4462 16.8018 85.3023 16.1923 85.0147 15.6855C84.7408 15.165 84.3572 14.7677 83.8641 14.4938C83.371 14.2198 82.8163 14.0829 82.1999 14.0829C81.5698 14.0829 81.0082 14.2198 80.5151 14.4938C80.0357 14.7677 79.6522 15.165 79.3645 15.6855C79.0769 16.1923 78.933 16.8018 78.933 17.5141C78.933 18.2126 79.0769 18.8222 79.3645 19.3427C79.6522 19.8632 80.0357 20.2604 80.5151 20.5343C81.0082 20.8083 81.5629 20.9453 82.1793 20.9453ZM90.4909 22.9999V12.0282H92.9359V15.0485L92.6482 14.165C92.977 13.4254 93.4906 12.8638 94.1892 12.4803C94.9014 12.0967 95.7849 11.905 96.8396 11.905V14.35C96.7301 14.3226 96.6273 14.3089 96.5314 14.3089C96.4356 14.2952 96.3397 14.2883 96.2438 14.2883C95.2713 14.2883 94.4974 14.576 93.9221 15.1513C93.3468 15.7129 93.0591 16.5552 93.0591 17.6784V22.9999H90.4909ZM103.89 27.1296C102.877 27.1296 101.883 26.9927 100.911 26.7187C99.9522 26.4585 99.1646 26.0749 98.5482 25.5681L99.6988 23.6368C100.178 24.034 100.781 24.3491 101.507 24.5819C102.246 24.8285 102.993 24.9518 103.746 24.9518C104.952 24.9518 105.835 24.671 106.397 24.1094C106.958 23.5615 107.239 22.7328 107.239 21.6233V19.6714L107.445 17.1853L107.362 14.6992V12.0282H109.807V21.3356C109.807 23.3218 109.301 24.7805 108.287 25.712C107.273 26.6571 105.808 27.1296 103.89 27.1296ZM103.561 22.5068C102.52 22.5068 101.575 22.2876 100.726 21.8493C99.8905 21.3973 99.2262 20.774 98.7331 19.9796C98.2537 19.1851 98.014 18.2537 98.014 17.1853C98.014 16.1306 98.2537 15.206 98.7331 14.4116C99.2262 13.6171 99.8905 13.0008 100.726 12.5624C101.575 12.1241 102.52 11.905 103.561 11.905C104.493 11.905 105.328 12.0899 106.068 12.4597C106.808 12.8295 107.397 13.4048 107.835 14.1856C108.287 14.9663 108.513 15.9663 108.513 17.1853C108.513 18.4044 108.287 19.4112 107.835 20.2056C107.397 20.9864 106.808 21.5685 106.068 21.952C105.328 22.3219 104.493 22.5068 103.561 22.5068ZM103.952 20.3289C104.596 20.3289 105.171 20.1988 105.678 19.9385C106.184 19.6646 106.575 19.2947 106.849 18.829C107.136 18.3496 107.28 17.8017 107.28 17.1853C107.28 16.5689 107.136 16.0279 106.849 15.5622C106.575 15.0828 106.184 14.7198 105.678 14.4732C105.171 14.213 104.596 14.0829 103.952 14.0829C103.308 14.0829 102.726 14.213 102.205 14.4732C101.699 14.7198 101.301 15.0828 101.014 15.5622C100.74 16.0279 100.603 16.5689 100.603 17.1853C100.603 17.8017 100.74 18.3496 101.014 18.829C101.301 19.2947 101.699 19.6646 102.205 19.9385C102.726 20.1988 103.308 20.3289 103.952 20.3289Z" fill="#2D9CDB"/>
<path d="M119.819 22.9999V12.3775H115.607V8.61759H128.879V12.3775H124.667V22.9999H119.819ZM135.076 23.2053C133.707 23.2053 132.508 22.9519 131.481 22.4451C130.467 21.9383 129.68 21.2466 129.118 20.37C128.556 19.4796 128.276 18.4797 128.276 17.3702C128.276 16.2334 128.549 15.2266 129.097 14.35C129.659 13.4733 130.419 12.7885 131.378 12.2953C132.351 11.8022 133.439 11.5557 134.645 11.5557C135.754 11.5557 136.775 11.7748 137.706 12.2132C138.651 12.6515 139.405 13.3021 139.966 14.165C140.542 15.028 140.829 16.0964 140.829 17.3702C140.829 17.5346 140.822 17.7195 140.809 17.925C140.795 18.1167 140.781 18.2948 140.768 18.4592H132.118V16.2197H138.302L136.556 16.8155C136.556 16.3772 136.473 16.0073 136.309 15.706C136.158 15.391 135.946 15.1513 135.672 14.9869C135.398 14.8088 135.069 14.7198 134.686 14.7198C134.302 14.7198 133.967 14.8088 133.679 14.9869C133.405 15.1513 133.193 15.391 133.042 15.706C132.892 16.0073 132.816 16.3772 132.816 16.8155V17.5141C132.816 17.9935 132.912 18.4044 133.104 18.7468C133.296 19.0893 133.57 19.3495 133.926 19.5276C134.282 19.692 134.713 19.7741 135.22 19.7741C135.741 19.7741 136.165 19.7056 136.494 19.5687C136.836 19.4317 137.193 19.2262 137.562 18.9523L139.987 21.3973C139.439 21.9863 138.761 22.4383 137.953 22.7533C137.158 23.0547 136.199 23.2053 135.076 23.2053ZM146.691 23.2053C145.733 23.2053 144.788 23.1026 143.856 22.8971C142.925 22.6917 142.171 22.4246 141.596 22.0958L142.87 19.0345C143.404 19.3495 144.02 19.5961 144.719 19.7741C145.431 19.9522 146.123 20.0412 146.794 20.0412C147.356 20.0412 147.732 19.9933 147.924 19.8974C148.13 19.8015 148.232 19.6714 148.232 19.507C148.232 19.3427 148.116 19.2262 147.883 19.1578C147.65 19.0756 147.342 19.0139 146.959 18.9728C146.575 18.9317 146.15 18.8838 145.685 18.829C145.233 18.7605 144.774 18.6646 144.308 18.5414C143.842 18.4181 143.418 18.2332 143.034 17.9866C142.651 17.7401 142.343 17.4113 142.11 17.0004C141.877 16.5758 141.76 16.0416 141.76 15.3978C141.76 14.6855 141.973 14.0418 142.397 13.4665C142.836 12.8912 143.479 12.4323 144.329 12.0899C145.192 11.7338 146.253 11.5557 147.513 11.5557C148.335 11.5557 149.157 11.631 149.979 11.7817C150.801 11.9324 151.506 12.1652 152.095 12.4803L150.821 15.5416C150.246 15.2266 149.677 15.0143 149.116 14.9047C148.568 14.7814 148.054 14.7198 147.575 14.7198C146.986 14.7198 146.582 14.7746 146.363 14.8842C146.157 14.9937 146.055 15.117 146.055 15.254C146.055 15.4184 146.171 15.5416 146.404 15.6238C146.637 15.706 146.945 15.7676 147.328 15.8087C147.712 15.8498 148.13 15.9046 148.582 15.9731C149.047 16.0279 149.506 16.1238 149.958 16.2607C150.424 16.384 150.849 16.5689 151.232 16.8155C151.616 17.062 151.924 17.3976 152.157 17.8223C152.39 18.2332 152.506 18.7605 152.506 19.4043C152.506 20.0755 152.294 20.7056 151.869 21.2945C151.444 21.8698 150.801 22.3356 149.938 22.6917C149.075 23.0341 147.993 23.2053 146.691 23.2053ZM159.336 23.2053C157.788 23.2053 156.583 22.8355 155.72 22.0958C154.857 21.3425 154.426 20.1919 154.426 18.6441V9.23397H159.069V18.603C159.069 18.9454 159.158 19.2125 159.336 19.4043C159.528 19.5961 159.761 19.692 160.035 19.692C160.432 19.692 160.781 19.5892 161.083 19.3838L162.192 22.6095C161.836 22.815 161.404 22.9656 160.898 23.0615C160.405 23.1574 159.884 23.2053 159.336 23.2053ZM152.885 15.7676V12.3775H161.37V15.7676H152.885ZM167.759 23.2053C166.8 23.2053 165.855 23.1026 164.924 22.8971C163.992 22.6917 163.239 22.4246 162.664 22.0958L163.938 19.0345C164.472 19.3495 165.088 19.5961 165.787 19.7741C166.499 19.9522 167.191 20.0412 167.862 20.0412C168.424 20.0412 168.8 19.9933 168.992 19.8974C169.197 19.8015 169.3 19.6714 169.3 19.507C169.3 19.3427 169.184 19.2262 168.951 19.1578C168.718 19.0756 168.41 19.0139 168.026 18.9728C167.643 18.9317 167.218 18.8838 166.752 18.829C166.3 18.7605 165.842 18.6646 165.376 18.5414C164.91 18.4181 164.486 18.2332 164.102 17.9866C163.719 17.7401 163.41 17.4113 163.177 17.0004C162.945 16.5758 162.828 16.0416 162.828 15.3978C162.828 14.6855 163.04 14.0418 163.465 13.4665C163.903 12.8912 164.547 12.4323 165.396 12.0899C166.259 11.7338 167.321 11.5557 168.581 11.5557C169.403 11.5557 170.225 11.631 171.047 11.7817C171.868 11.9324 172.574 12.1652 173.163 12.4803L171.889 15.5416C171.314 15.2266 170.745 15.0143 170.184 14.9047C169.636 14.7814 169.122 14.7198 168.643 14.7198C168.054 14.7198 167.65 14.7746 167.431 14.8842C167.225 14.9937 167.122 15.117 167.122 15.254C167.122 15.4184 167.239 15.5416 167.472 15.6238C167.704 15.706 168.013 15.7676 168.396 15.8087C168.78 15.8498 169.197 15.9046 169.649 15.9731C170.115 16.0279 170.574 16.1238 171.026 16.2607C171.492 16.384 171.916 16.5689 172.3 16.8155C172.683 17.062 172.992 17.3976 173.225 17.8223C173.457 18.2332 173.574 18.7605 173.574 19.4043C173.574 20.0755 173.361 20.7056 172.937 21.2945C172.512 21.8698 171.868 22.3356 171.006 22.6917C170.143 23.0341 169.06 23.2053 167.759 23.2053Z" fill="#111111"/>
</svg>